<svg width="15" height="16" viewBox="0 0 15 16" fill="none" xmlns="http://www.w3.org/2000/svg">
<path d="M7.41422 1.82166C4.00993 1.82166 1.23584 4.59575 1.23584 8.00003C1.23584 11.4043 4.00993 14.1784 7.41422 14.1784C10.8185 14.1784 13.5926 11.4043 13.5926 8.00003C13.5926 4.59575 10.8185 1.82166 7.41422 1.82166ZM10.3675 6.57901L6.86434 10.0821C6.77784 10.1686 6.66046 10.2181 6.53689 10.2181C6.41332 10.2181 6.29593 10.1686 6.20943 10.0821L4.46095 8.33366C4.28178 8.15449 4.28178 7.85793 4.46095 7.67876C4.64013 7.49958 4.93669 7.49958 5.11586 7.67876L6.53689 9.09978L9.71257 5.9241C9.89175 5.74493 10.1883 5.74493 10.3675 5.9241C10.5467 6.10327 10.5467 6.39365 10.3675 6.57901Z" fill="#13EB00"/>
</svg>
